#!OML:ASF H:\Terrain\Patient Classification 1\Walking\liu\liu.ASF
:FULLY-SPECIFIED
:DEGREES
128
root 9.31652 16.5142 -14.4959 6.35597 4.28807 4.46721
lowerback -6.05628 -3.71021 -6.3251
upperback 0.283409 -4.55443 1.62056
thorax 4.3225 -2.4219 4.77246
lowerneck -22.2836 -3.24139 -11.7263
upperneck 20.5476 -3.53371 11.815
head 10.723 -1.11741 5.73111
rclavicle 1.08835e-014 -2.62396e-014
rhumerus -46.296 9.76382 -87.0011
rradius 30.5768
rwrist -11.7301
rhand -28.3377 -25.1262
rfingers 7.12502
rthumb -1.71211 -55.0991
lclavicle 1.08835e-014 -2.62396e-014
lhumerus -11.4381 -26.6671 88.588
lradius 38.9717
lwrist 9.94064
lhand -13.996 -28.1374
lfingers 7.12502
lthumb 12.133 1.49078
rfemur -39.1812 16.0997 8.05796
rtibia 24.5859
rfoot -26.199 -15.8077
rtoes -22.1503
lfemur 11.4222 5.10323 -28.579
ltibia -1.27222e-014
lfoot -12.7453 1.05095
ltoes -1.56218
129
root 9.30554 16.5025 -14.3327 6.41445 4.12533 4.49786
lowerback -6.16014 -3.6738 -6.42273
upperback 0.24853 -4.49295 1.63048
thorax 4.3449 -2.3933 4.84003
lowerneck -22.1151 -3.19287 -11.4076
upperneck 20.5025 -3.47447 11.3649
head 10.651 -1.12213 5.51002
rclavicle 7.55382e-014 -1.59028e-014
rhumerus -46.2681 9.46738 -86.7531
rradius 30.3401
rwrist -11.3041
rhand -27.1291 -24.0189
rfingers 7.12502
rthumb -0.544736 -53.9979
lclavicle 7.55382e-014 -1.59028e-014
lhumerus -11.6024 -26.7996 88.7693
lradius 38.865
lwrist 9.63543
lhand -13.7382 -28.3185
lfingers 7.12502
lthumb 12.3815 1.29483
rfemur -38.8575 14.9 8.8851
rtibia 24.2154
rfoot -25.0577 -14.9733
rtoes -22.2753
lfemur 11.9484 5.50225 -28.4301
ltibia 3.18055e-015
lfoot -12.6061 0.816778
ltoes -3.57591
130
root 9.29177 16.4881 -14.1708 6.34002 4.04791 4.46492
lowerback -6.04634 -3.64222 -6.47832
upperback 0.183773 -4.45883 1.70845
thorax 4.21912 -2.37343 4.96612
lowerneck -21.6163 -3.1754 -11.7361
upperneck 20.1553 -3.4339 11.624
head 10.4378 -1.11017 5.65174
rclavicle 1.81391e-014 -1.35174e-014
rhumerus -46.2325 9.18483 -86.4217
rradius 29.9273
rwrist -10.924
rhand -26.937 -23.4152
rfingers 7.12502
rthumb -0.359274 -53.3947
lclavicle 1.81391e-014 -1.35174e-014
lhumerus -11.8256 -27.0132 89.0404
lradius 38.6005
lwrist 9.42442
lhand -13.9244 -28.434
lfingers 7.12502
lthumb 12.202 1.19009
rfemur -38.3144 13.242 10.0661
rtibia 24.0538
rfoot -23.4333 -13.7132
rtoes -20.6399
lfemur 12.6162 5.83517 -28.1372
ltibia -1.27222e-014
lfoot -12.761 0.259064
ltoes -5.08914
131
root 9.2769 16.4715 -14.0091 6.20936 4.0426 4.41549
lowerback -5.87965 -3.66298 -6.54977
upperback 0.15402 -4.49789 1.82296
thorax 4.11483 -2.39237 5.13278
lowerneck -21.3176 -3.13613 -12.0786
upperneck 19.9484 -3.35076 11.8948
head 10.3077 -1.0741 5.8141
rclavicle -2.24627e-014 1.59028e-015
rhumerus -46.1348 9.08747 -86.1188
rradius 29.4198
rwrist -10.5922
rhand -27.5873 -22.4605
rfingers 7.12502
rthumb -0.987322 -52.438
lclavicle -2.24627e-014 1.59028e-015
lhumerus -12.1648 -27.013 89.3111
lradius 38.4577
lwrist 9.22432
lhand -13.9584 -28.5216
lfingers 7.12502
lthumb 12.1692 1.10442
rfemur -37.7771 11.5866 11.2492
rtibia 24.1518
rfoot -22.1288 -12.4202
rtoes -18.3536
lfemur 13.3822 6.10188 -27.8092
ltibia 3.81667e-014
lfoot -12.8962 -0.315346
ltoes -5.44201
132
root 9.26346 16.4562 -13.8445 6.11981 4.03476 4.55996
lowerback -5.80611 -3.65948 -6.74251
upperback 0.126858 -4.48488 1.81048
thorax 4.0575 -2.3873 5.2348
lowerneck -21.2247 -3.12017 -12.1102
upperneck 20.1144 -3.33203 11.8584
head 10.347 -1.07596 5.81456
rclavicle 1.15792e-014 2.94201e-014
rhumerus -46.0597 8.66956 -85.7142
rradius 29.0146
rwrist -10.0934
rhand -27.2764 -21.8911
rfingers 7.12502
rthumb -0.687044 -51.8697
lclavicle 1.15792e-014 2.94201e-014
lhumerus -12.5458 -27.0963 89.5553
lradius 38.3875
lwrist 9.07123
lhand -13.4631 -28.4257
lfingers 7.12502
lthumb 12.6467 1.17142
rfemur -37.3582 9.9614 12.1811
rtibia 24.5274
rfoot -21.0976 -11.2957
rtoes -16.7381
lfemur 14.1277 6.34772 -27.7209
ltibia 5.725e-014
lfoot -12.8486 -0.615328
ltoes -6.00057
133
root 9.24763 16.4403 -13.6759 6.17992 4.01229 4.8541
lowerback -5.91866 -3.60213 -7.0013
upperback 0.0628652 -4.3778 1.66357
thorax 4.04646 -2.33482 5.23389
lowerneck -21.3263 -3.15793 -11.8189
upperneck 20.503 -3.43399 11.598
head 10.5099 -1.13003 5.66761
rclavicle -2.11209e-014 -4.77083e-015
rhumerus -46.3493 7.95976 -85.3547
rradius 29.3507
rwrist -9.59607
rhand -26.7841 -23.2201
rfingers 7.12502
rthumb -0.211525 -53.1997
lclavicle -2.11209e-014 -4.77083e-015
lhumerus -12.9779 -27.3267 89.7753
lradius 38.1879
lwrist 8.72182
lhand -13.2126 -28.6014
lfingers 7.12502
lthumb 12.8883 0.980611
rfemur -37.1395 8.63024 12.7589
rtibia 25.1273
rfoot -20.2398 -10.5944
rtoes -16.1287
lfemur 14.708 6.57014 -27.7872
ltibia -4.45278e-014
lfoot -12.4769 -0.902301
ltoes -7.33464
134
root 9.22925 16.4235 -13.5008 6.24767 3.93428 5.12262
lowerback -6.08381 -3.57239 -7.24764
upperback 0.0590764 -4.30105 1.48308
thorax 4.1287 -2.30149 5.1822
lowerneck -21.5447 -3.17089 -11.3726
upperneck 20.7534 -3.53628 11.3606
head 10.6426 -1.16456 5.49745
rclavicle 6.4605e-016 1.59028e-015
rhumerus -46.4797 7.31124 -85.1115
rradius 29.4562
rwrist -9.2259
rhand -26.9775 -23.1199
rfingers 7.12502
rthumb -0.398328 -53.0992
lclavicle 6.4605e-016 1.59028e-015
lhumerus -13.3855 -27.4012 89.8505
lradius 37.9133
lwrist 8.16895
lhand -13.3429 -28.7347
lfingers 7.12502
lthumb 12.7627 0.855188
rfemur -36.9931 7.53041 13.2667
rtibia 25.8844
rfoot -18.9613 -10.1485
rtoes -17.2018
lfemur 15.3229 6.8418 -27.8146
ltibia -4.77083e-014
lfoot -11.9623 -1.02206
ltoes -8.75922
135
root 9.2078 16.398 -13.3214 6.19273 3.83035 5.27292
lowerback -6.20462 -3.56386 -7.47809
upperback 0.0847748 -4.26027 1.42188
thorax 4.23051 -2.28928 5.24449
lowerneck -21.4742 -3.16868 -11.4609
upperneck 20.7493 -3.56523 11.5701
head 10.6379 -1.16213 5.58699
rclavicle -1.56543e-014 1.82882e-014
rhumerus -45.9861 6.82762 -84.8064
rradius 28.2478
rwrist -8.75437
rhand -26.7898 -21.1613
rfingers 7.12502
rthumb -0.217116 -51.1409
lclavicle -1.56543e-014 1.82882e-014
lhumerus -13.8568 -27.1857 90.0926
lradius 37.7099
lwrist 7.68327
lhand -13.2217 -28.5689
lfingers 7.12502
lthumb 12.8795 1.01368
rfemur -36.8335 6.34778 14.0092
rtibia 26.7188
rfoot -16.8281 -9.51012
rtoes -20.3647
lfemur 16.0976 7.15916 -27.6886
ltibia -6.36111e-015
lfoot -11.6072 -1.0458
ltoes -10.8863
136
root 9.18297 16.382 -13.1387 6.0678 3.7051 5.139
lowerback -6.31055 -3.53818 -7.52032
upperback 0.0768231 -4.22115 1.57449
thorax 4.29123 -2.27487 5.42835
lowerneck -21.3058 -3.17369 -12.032
upperneck 20.8084 -3.5112 11.9885
head 10.6396 -1.13985 5.85442
rclavicle 4.01048e-014 1.51076e-014
rhumerus -45.6388 6.80728 -84.5709
rradius 27.3614
rwrist -8.42708
rhand -26.7535 -22.1979
rfingers 7.12502
rthumb -0.182055 -52.1775
lclavicle 4.01048e-014 1.51076e-014
lhumerus -14.4898 -26.8306 90.6973
lradius 37.4844
lwrist 7.33634
lhand -13.0747 -28.3859
lfingers 7.12502
lthumb 13.0212 1.18765
rfemur -36.724 5.6134 14.8405
rtibia 27.5517
rfoot -14.8735 -8.11045
rtoes -21.6058
lfemur 16.8866 7.51436 -27.1541
ltibia 3.18055e-015
lfoot -11.2588 -1.52118
ltoes -11.2931
137
root 9.16225 16.3879 -12.9558 5.91258 3.62828 4.88746
lowerback -6.27721 -3.50908 -7.34835
upperback 0.033569 -4.204 1.69892
thorax 4.22108 -2.2608 5.46816
lowerneck -21.2211 -3.12608 -12.1345
upperneck 20.9014 -3.43708 12.0298
head 10.6493 -1.11246 5.90255
rclavicle -6.36111e-015 -3.18055e-015
rhumerus -45.5846 6.69911 -84.3826
rradius 27.0349
rwrist -8.13269
rhand -27.2422 -23.4984
rfingers 7.12502
rthumb -0.653989 -53.4771
lclavicle -6.36111e-015 -3.18055e-015
lhumerus -15.1716 -26.2473 91.2806
lradius 37.025
lwrist 6.65712
lhand -13.1194 -28.1635
lfingers 7.12502
lthumb 12.9781 1.41282
rfemur -36.659 5.48113 15.3649
rtibia 28.4597
rfoot -13.8724 -7.26115
rtoes -21.1098
lfemur 17.6691 7.82711 -26.4661
ltibia 3.81667e-014
lfoot -10.5062 -2.01192
ltoes -10.3221
138
root 9.14936 16.3959 -12.7694 5.75545 3.57805 4.64866
lowerback -6.31258 -3.42604 -6.95231
upperback 0.0169169 -4.11691 1.62296
thorax 4.17499 -2.20587 5.17418
lowerneck -21.0476 -3.04639 -11.7638
upperneck 20.8956 -3.43232 11.8903
head 10.6039 -1.1007 5.78345
rclavicle 4.12478e-015 9.54166e-015
rhumerus -45.6969 6.61197 -84.7156
rradius 26.8371
rwrist -8.95633
rhand -28.3705 -22.5123
rfingers 7.12502
rthumb -1.74376 -52.4849
lclavicle 4.12478e-015 9.54166e-015
lhumerus -15.8171 -25.676 91.5624
lradius 36.5006
lwrist 5.65349
lhand -13.0426 -28.2279
lfingers 7.12502
lthumb 13.0521 1.34373
rfemur -36.5054 5.36346 15.7487
rtibia 29.4488
rfoot -13.0042 -7.71445
rtoes -20.6766
lfemur 18.4883 8.11711 -25.8748
ltibia -2.54444e-014
lfoot -9.51803 -2.21974
ltoes -12.2901
139
root 9.14184 16.3985 -12.5728 5.47775 3.54478 4.56079
lowerback -6.4 -3.34858 -6.66614
upperback 0.109427 -4.02179 1.50761
thorax 4.27819 -2.15665 4.89574
lowerneck -20.8657 -3.02998 -11.6375
upperneck 20.8759 -3.47784 11.9199
head 10.567 -1.1125 5.7631
rclavicle 3.54334e-014 1.82882e-014
rhumerus -45.7785 6.83232 -85.3481
rradius 26.7238
rwrist -10.88
rhand -29.9245 -21.7058
rfingers 7.12502
rthumb -3.24453 -51.6608
lclavicle 3.54334e-014 1.82882e-014
lhumerus -16.3471 -25.5258 91.747
lradius 36.0206
lwrist 5.28269
lhand -12.7593 -28.1977
lfingers 7.12502
lthumb 13.3252 1.35628
rfemur -35.9913 4.71679 16.1812
rtibia 30.4339
rfoot -11.7346 -7.35148
rtoes -19.4502
lfemur 19.4786 8.3873 -25.4582
ltibia 3.18055e-014
lfoot -8.57796 -2.39031
ltoes -14.2851
140
root 9.12859 16.3901 -12.381 5.02807 3.5062 4.3776
lowerback -6.21417 -3.33772 -6.51371
upperback 0.227386 -4.03364 1.61393
thorax 4.29589 -2.16489 4.92644
lowerneck -20.6979 -3.04259 -11.8607
upperneck 20.7842 -3.4517 11.9898
head 10.5038 -1.11469 5.8265
rclavicle 3.92103e-014 -1.03368e-014
rhumerus -45.41 6.70908 -85.1485
rradius 26.1238
rwrist -11.0576
rhand -30.0132 -21.9172
rfingers 7.12502
rthumb -3.33024 -51.8709
lclavicle 3.92103e-014 -1.03368e-014
lhumerus -16.8247 -25.1672 92.0742
lradius 35.4123
lwrist 5.24059
lhand -12.5854 -27.8345
lfingers 7.12502
lthumb 13.4928 1.70842
rfemur -35.2457 4.13159 16.8014
rtibia 31.3302
rfoot -10.6254 -6.37815
rtoes -19.3982
lfemur 20.6226 8.67104 -24.8766
ltibia 4.13472e-014
lfoot -7.60578 -2.52312
ltoes -15.3802
141
root 9.10833 16.3792 -12.1993 4.61018 3.36185 3.69253
lowerback -5.94667 -3.30707 -5.94998
upperback 0.287493 -4.06001 1.861
thorax 4.1893 -2.16802 4.87781
lowerneck -20.8591 -2.95058 -11.6781
upperneck 20.9489 -3.32896 11.8053
head 10.5695 -1.06166 5.75205
rclavicle 1.41137e-014 9.54166e-015
rhumerus -44.9998 6.47273 -84.7658
rradius 25.5034
rwrist -10.2981
rhand -29.4615 -21.8067
rfingers 7.12502
rthumb -2.79742 -51.7681
lclavicle 1.41137e-014 9.54166e-015
lhumerus -17.377 -24.1742 92.3894
lradius 34.6226
lwrist 4.45235
lhand -12.6682 -27.8615
lfingers 7.12502
lthumb 13.4131 1.68673
rfemur -34.6064 3.8833 17.953
rtibia 32.0536
rfoot -9.68908 -5.74507
rtoes -20.0911
lfemur 21.6877 9.06867 -23.7342
ltibia 7.63333e-014
lfoot -6.41206 -2.57788
ltoes -17.6187
142
root 9.08586 16.386 -12.0334 4.23229 3.61763 3.05764
lowerback -5.43807 -3.38152 -5.41114
upperback 0.285181 -4.23128 2.03269
thorax 3.89577 -2.23661 4.7631
lowerneck -21.3571 -2.81692 -11.1199
upperneck 21.4212 -3.20158 11.3959
head 10.8008 -0.99534 5.54497
rclavicle -1.28962e-014 1.35174e-014
rhumerus -44.7244 6.39407 -84.7361
rradius 24.9839
rwrist -10.085
rhand -29.7867 -21.2074
rfingers 7.12502
rthumb -3.11145 -51.1644
lclavicle -1.28962e-014 1.35174e-014
lhumerus -18.0302 -23.4303 92.5947
lradius 33.9619
lwrist 3.83363
lhand -12.5916 -27.9189
lfingers 7.12502
lthumb 13.4869 1.62439
rfemur -33.8905 3.27924 19.0471
rtibia 32.546
rfoot -8.97129 -5.32775
rtoes -20.5921
lfemur 22.5938 9.05562 -22.6338
ltibia -4.77083e-014
lfoot -4.47311 -2.44999
ltoes -18.1801
